# xmcd CD database file
#
# Track frame offsets:
#	150
#	18780
#	39897
#	54338
#	84106
#	104112
#	131587
#	150979
#	166195
#	179962
#	195086
#
# Disc length: 2833 seconds
#
# Revision: 0
# Processed by: cddbd v1.5.2PL0 Copyright (c) Steve Scherf et al.
# Submitted via: CDex 1.51
#
DISCID=790b0f0b
DTITLE=Quintessential Boys - Underage
DYEAR=2007
DGENRE=Jazz
TTITLE0=Billies Bounce
TTITLE1=Take The A Train 
TTITLE2=Yardbird Suite 
TTITLE3=Chillin Out 
TTITLE4=Video 
TTITLE5=Holy Montuno 
TTITLE6=Maiden Voyage 
TTITLE7=Scrapple From The Apple
TTITLE8=My Little Suede Shoes
TTITLE9=Birks Works
TTITLE10=Chillin Out (Radio Edit)
EXTD=YEAR: 2007
EXTT0=
EXTT1=
EXTT2=
EXTT3=
EXTT4=
EXTT5=
EXTT6=
EXTT7=
EXTT8=
EXTT9=
EXTT10=
PLAYORDER=
